<?xml version="1.0" encoding="UTF-8" standalone="no"?>
<svg
   width="425"
   height="482"
   viewBox="0 0 425 482"
   fill="none"
   version="1.1"
   id="svg188"
   sodipodi:docname="engine.svg"
   inkscape:version="1.2.1 (9c6d41e4, 2022-07-14)"
   xmlns:inkscape="http://www.inkscape.org/namespaces/inkscape"
   xmlns:sodipodi="http://sodipodi.sourceforge.net/DTD/sodipodi-0.dtd"
   xmlns="http://www.w3.org/2000/svg"
   xmlns:svg="http://www.w3.org/2000/svg">
  <defs
     id="defs192">
    <clipPath
       clipPathUnits="userSpaceOnUse"
       id="clipPath1036">
      <g
         id="g1040">
        <rect
           width="139.17084"
           height="100.72291"
           fill="#ffffff"
           id="rect1038"
           x="7.1573834"
           y="13.854729"
           style="stroke-width:0.264583" />
      </g>
    </clipPath>
    <clipPath
       clipPathUnits="userSpaceOnUse"
       id="clipPath1030">
      <g
         id="g1034">
        <rect
           width="139.17084"
           height="100.72291"
           fill="#ffffff"
           id="rect1032"
           x="7.1573834"
           y="13.854729"
           style="stroke-width:0.264583" />
      </g>
    </clipPath>
    <clipPath
       clipPathUnits="userSpaceOnUse"
       id="clipPath1048">
      <g
         id="g1052">
        <rect
           width="139.17084"
           height="100.72291"
           fill="#ffffff"
           id="rect1050"
           x="7.1573834"
           y="13.854729"
           style="stroke-width:0.264583" />
      </g>
    </clipPath>
    <clipPath
       clipPathUnits="userSpaceOnUse"
       id="clipPath1042">
      <g
         id="g1046">
        <rect
           width="139.17084"
           height="100.72291"
           fill="#ffffff"
           id="rect1044"
           x="7.1573834"
           y="13.854729"
           style="stroke-width:0.264583" />
      </g>
    </clipPath>
    <clipPath
       clipPathUnits="userSpaceOnUse"
       id="clipPath1024">
      <g
         id="g1028">
        <rect
           width="139.17084"
           height="100.72291"
           fill="#ffffff"
           id="rect1026"
           x="7.1573834"
           y="13.854729"
           style="stroke-width:0.264583" />
      </g>
    </clipPath>
    <clipPath
       clipPathUnits="userSpaceOnUse"
       id="clipPath1054">
      <g
         id="g1058">
        <rect
           width="139.17084"
           height="100.72291"
           fill="#ffffff"
           id="rect1056"
           x="7.1573834"
           y="13.854729"
           style="stroke-width:0.264583" />
      </g>
    </clipPath>
    <clipPath
       clipPathUnits="userSpaceOnUse"
       id="clipPath1066">
      <g
         id="g1070">
        <rect
           width="139.17084"
           height="100.72291"
           fill="#ffffff"
           id="rect1068"
           x="7.1573834"
           y="13.854729"
           style="stroke-width:0.264583" />
      </g>
    </clipPath>
    <clipPath
       clipPathUnits="userSpaceOnUse"
       id="clipPath1060">
      <g
         id="g1064">
        <rect
           width="139.17084"
           height="100.72291"
           fill="#ffffff"
           id="rect1062"
           x="7.1573834"
           y="13.854729"
           style="stroke-width:0.264583" />
      </g>
    </clipPath>
  </defs>
  <sodipodi:namedview
     id="namedview190"
     pagecolor="#ffffff"
     bordercolor="#666666"
     borderopacity="1.0"
     inkscape:showpageshadow="2"
     inkscape:pageopacity="0.0"
     inkscape:pagecheckerboard="0"
     inkscape:deskcolor="#d1d1d1"
     showgrid="false"
     inkscape:zoom="1.384873"
     inkscape:cx="170.05169"
     inkscape:cy="267.17251"
     inkscape:window-width="1496"
     inkscape:window-height="1178"
     inkscape:window-x="39"
     inkscape:window-y="1076"
     inkscape:window-maximized="0"
     inkscape:current-layer="svg188" />
  <path
     d="M81.2108 380.085L38.9836 350.049L48.4083 328.913C41.707 320.869 36.1379 311.937 31.7622 302.333L8.59843 301.599L0 250.519L21.6338 242.23C22.613 231.739 24.9691 221.462 28.641 211.674L12.7906 194.79L42.8392 152.58L63.9834 162.001C72.031 155.302 80.966 149.736 90.5742 145.362L91.3086 122.208L142.41 113.582L150.702 135.207C161.198 136.186 171.479 138.541 181.271 142.211L198.162 126.367L240.389 156.404L230.964 177.539C237.666 185.614 243.265 194.545 247.61 204.119L270.774 204.853L279.373 255.933L257.739 264.222C257.31 268.841 256.607 273.459 255.658 277.986L255.383 279.21L198.376 265.17L198.59 264.039C202.782 241.251 193.266 217.852 174.417 204.455C147.52 185.339 110.097 191.64 90.9415 218.525C71.8168 245.411 78.1203 282.819 105.017 301.966C110.647 305.973 116.798 308.94 123.346 310.775L124.417 311.081L113.493 368.798L112.239 368.492C107.465 367.361 102.722 365.923 98.1017 364.18L81.2108 380.085ZM42.013 349.192L80.966 376.904L97.4897 361.396L98.1935 361.672C102.539 363.323 107.006 364.73 111.504 365.831L121.541 312.824C115.115 310.867 109.056 307.9 103.518 303.954C75.5805 284.073 69.0017 245.105 88.9219 217.149C108.842 189.162 147.826 182.616 175.794 202.528C195.132 216.262 204.985 240.058 201.161 263.427L253.486 276.304C254.342 272.022 254.985 267.648 255.352 263.304L255.413 262.54L276.619 254.434L268.663 207.3L245.989 206.566L245.683 205.862C241.276 195.983 235.524 186.807 228.608 178.579L228.119 177.998L237.36 157.291L198.407 129.579L181.883 145.086L181.179 144.811C171.142 140.957 160.555 138.541 149.784 137.623L149.019 137.562L140.91 116.365L93.7566 124.318L93.0222 146.983L92.3184 147.289C82.4348 151.693 73.2244 157.444 65.0237 164.356L64.4424 164.846L43.7266 155.608L15.9729 194.576L31.4868 211.093L31.2114 211.796C27.3559 221.859 24.9385 232.412 24.0205 243.209L23.9593 243.974L2.75395 252.079L10.7098 299.213L33.384 299.947L33.6899 300.651C38.0963 310.53 43.849 319.707 50.7644 327.934L51.254 328.515L42.013 349.192Z"
     fill="#98C2F8"
     id="path132" />
  <path
     d="M139.686 316.739V314.292C164.411 314.292 186.35 299.458 195.53 276.548L197.795 277.466C188.217 301.293 165.42 316.739 139.686 316.739Z"
     fill="#48B1F0"
     id="path134" />
  <path
     d="M139.686 334.266V331.819C157.924 331.819 175.09 325.854 189.38 314.568L190.91 316.495C176.161 328.118 158.474 334.266 139.686 334.266Z"
     fill="#48B1F0"
     id="path136" />
  <path
     d="M341.853 61.1086L340.04 62.7529L381.762 108.715L383.575 107.071L341.853 61.1086Z"
     fill="#98A6B1"
     id="path138" />
  <path
     d="M273.834 230.668L269.703 206.107L246.784 205.373C242.409 195.524 236.625 186.226 229.526 177.784L238.859 156.862L198.284 128.019L181.577 143.679C177.354 142.058 173.07 140.713 168.756 139.611L158.444 195.126C164.258 196.992 169.857 199.776 175.09 203.507C195.071 217.7 203.914 241.71 199.753 264.314L254.404 277.772C255.413 273 256.117 268.198 256.545 263.396L277.965 255.199L273.834 230.668ZM89.9317 217.852C94.6746 211.185 100.519 205.771 107.037 201.641L79.1301 152.764C73.9282 155.884 68.9099 159.462 64.1976 163.439L43.2676 154.11L28.8246 174.389L14.3817 194.698L30.0486 211.399C26.1013 221.706 23.6839 232.381 22.766 243.117L1.34637 251.314L5.50789 275.845L9.63881 300.406L32.5578 301.14C36.9641 310.989 42.7168 320.288 49.8158 328.73L40.483 349.651L60.7704 364.088L81.0578 378.525L97.7651 362.864C102.6 364.7 107.496 366.229 112.453 367.391L122.948 312.029C116.4 310.194 110.097 307.196 104.222 303.037C76.7739 283.431 70.3481 245.319 89.9317 217.852Z"
     fill="#98C2F8"
     id="path140" />
  <path
     d="M341 63C344.317 63 347 60.967 347 58.4543H345.583C345.583 60.3731 343.533 61.9264 341 61.9264C338.467 61.9264 336.417 60.3731 336.417 58.4543C336.417 56.5355 338.467 54.9822 341 54.9822H341.693V0H340.276V53.9315C337.291 54.2056 335 56.1244 335 58.4315C335 60.9442 337.683 63 341 63Z"
     fill="#385369"
     id="path142" />
  <path
     d="M339.282 50.9026H342.709V16.1254H339.282V50.9026Z"
     fill="#98A6B1"
     id="path144" />
  <path
     d="M300.18 108.688L298.375 107.036L340.939 60.0854L342.622 61.5842L300.18 108.688Z"
     fill="#98A6B1"
     id="path146" />
  <path
     d="M411.287 153.742C416.152 150.102 420.681 146.096 424.873 141.783L385.767 101.286C379.922 107.648 372.609 112.878 364.072 116.396C339.501 126.489 312.175 119.454 295.376 100.766L257.004 142.058C261.044 146.187 265.389 149.98 269.948 153.436L265.481 175.918L288.461 185.491L311.441 195.065L324.262 176.071C334.941 177.6 345.865 177.661 356.82 176.162L369.549 195.187L392.59 185.705L415.632 176.224L411.287 153.742Z"
     fill="#77A0D3"
     id="path148" />
  <path
     d="M250.089 365.25C250.089 365.25 259.361 380.544 262.604 379.748C264.104 379.381 269.091 375.527 270.958 373.111C271.57 372.316 272.182 371.459 272.763 370.634C275.058 367.3 276.894 364.119 276.894 364.119C276.894 364.119 285.829 355.065 280.382 351.517C280.382 351.517 276.007 352.129 274.171 354.086C272.335 356.044 270.468 359.836 269.979 360.876C269.489 361.916 263.186 369.441 262.849 369.655C262.512 369.869 260.126 368.584 258.534 366.841C256.209 364.272 253.7 360.785 253.7 360.785L250.089 365.25Z"
     fill="#B93837"
     id="path150" />
  <path
     d="M239.165 309.093L217.348 301.997L192.899 345.399L210.279 360.356C209.055 364.944 208.107 369.624 207.433 374.334L263.002 383.357C265.083 365.464 275.058 349.223 290.266 339.312L253.547 296.399C248.375 300.253 243.571 304.505 239.165 309.093Z"
     fill="#4F85C9"
     id="path152" />
  <path
     d="M259.85 471.294C259.85 471.294 256.698 473.864 254.067 474.445C251.405 475.026 250.028 476.372 249.997 477.932C249.967 479.492 257.616 480.532 260.646 478.941C265.175 476.586 265.634 477.29 266.123 476.097C266.613 474.904 266.215 471.784 266.246 471.417C266.307 470.958 259.85 471.294 259.85 471.294Z"
     fill="#13448C"
     id="path154" />
  <path
     d="M260.095 470.438C260.095 470.438 259.758 471.723 259.789 471.753C259.85 471.784 265.756 472.457 265.572 471.417C265.419 470.591 265.205 469.673 265.205 469.673L260.095 470.438Z"
     fill="#2E2626"
     id="path156" />
  <path
     d="M297.487 473.344C297.487 473.344 295.529 476.311 293.051 476.892C290.603 477.473 289.685 478.421 289.562 479.889C289.44 481.357 295.346 483.315 299.476 480.715C302.2 479.002 303.21 479.094 303.76 478.024C304.311 476.953 303.883 473.894 303.944 473.527C304.036 473.099 297.487 473.344 297.487 473.344Z"
     fill="#13448C"
     id="path158" />
  <path
     d="M298.161 472.273C298.161 472.273 298.038 473.527 298.099 473.558C298.161 473.589 303.607 474.567 303.577 473.558C303.546 472.763 303.24 471.814 303.24 471.814L298.161 472.273Z"
     fill="#2F6B8C"
     id="path160" />
  <path
     d="M275.609 396.968C275.609 396.968 268.173 415.382 266.062 421.621C263.247 429.849 261.717 437.098 261.35 441.044C260.891 445.999 259.177 469.398 258.84 470.836C258.534 472.273 267.163 471.814 267.163 471.814C267.163 471.814 272.029 442.298 273.345 437.037C274.569 432.113 286.258 409.815 287.359 411.161C288.491 412.507 292.224 435.324 293.051 439.209C293.877 443.093 296.111 473.619 296.111 473.619C296.111 473.619 303.699 474.843 305.229 473.619C305.229 473.619 304.036 446.397 303.516 439.148C303.301 436.364 305.26 405.992 300.578 393.726C298.13 387.211 275.609 396.968 275.609 396.968Z"
     fill="#426CA2"
     id="path162" />
  <path
     d="M273.528 401.985C273.528 401.985 289.317 406.757 303.21 404.952C303.21 404.952 300.18 386.569 300.731 381.981C301.129 378.709 302.445 371.398 303.546 365.617C304.005 363.201 304.403 361.06 304.709 359.592C304.954 358.307 305.107 357.512 305.107 357.512C305.107 357.512 304.495 354.728 303.271 353.689C302.047 352.649 291.306 350.752 291.306 350.752H283.595C283.595 350.752 277.169 352.067 276.343 352.801C275.425 353.597 273.651 361.519 273.528 363.66C273.436 365.801 273.987 374.61 274.874 377.944C275.823 381.308 274.11 397.367 273.528 401.985Z"
     fill="#CD4948"
     id="path164" />
  <path
     d="M275.069 370.886H278.282V365.992H275.069V370.886Z"
     fill="#C6CAD9"
     id="path166" />
  <path
     d="M282.188 351.089C282.188 351.089 280.688 353.321 282.769 353.719C284.88 354.086 288.95 353.627 291.276 350.783C291.306 350.783 285.156 350.201 282.188 351.089Z"
     fill="#EEA886"
     id="path168" />
  <path
     d="M290.266 373.448C290.266 373.448 301.129 367.269 303.577 365.648C304.036 363.232 304.433 361.09 304.739 359.622C304.709 359.622 297.304 362.62 290.266 373.448Z"
     fill="#BC3736"
     id="path170" />
  <path
     d="M266.613 363.813C266.613 363.813 266.154 363.384 266.092 362.864C266.031 361.977 266.949 360.846 265.939 360.02C264.93 359.194 261.227 361.549 260.829 362.314C260.432 363.078 261.411 364.577 263.706 366.076C266.031 367.544 266.613 363.813 266.613 363.813Z"
     fill="#EEA886"
     id="path172" />
  <path
     d="M266.245 360.356C266.245 360.356 265.45 358.613 264.287 356.808C263.277 355.218 261.747 353.444 261.38 353.627C260.493 354.055 262.084 355.401 262.941 357.053C263.767 358.582 263.369 358.368 263.369 358.368C263.369 358.368 263.491 358.399 262.268 356.931C260.952 355.34 259.422 353.841 258.932 353.994C258.687 354.055 258.626 354.208 259.024 354.851C258.718 354.514 258.565 354.545 258.412 354.667C257.586 355.248 259.146 357.879 259.758 358.919C259.269 358.123 258.84 357.573 258.565 358.246C258.259 359.01 260.615 362.62 261.35 363.996C262.145 365.525 266.245 360.356 266.245 360.356Z"
     fill="#EEA886"
     id="path174" />
  <path
     d="M303.454 353.811C302.261 352.832 298.253 352.679 295.254 355.738C293.142 357.879 291.215 360.173 290.419 361.152C288.92 362.987 285.646 367.911 284.575 367.758C283.504 367.605 275.792 364.944 275.211 364.853C274.63 364.761 266.49 361.58 266.49 361.58L263.828 366.596C263.828 366.596 279.862 374.273 281.331 374.763C282.8 375.252 285.89 377.087 289.195 374.365C292.347 371.796 298.344 367.085 300.027 365.648C300.609 365.128 308.718 358.154 303.454 353.811Z"
     fill="#CD4948"
     id="path176" />
  <path
     d="M282.157 352.251C282.157 352.251 284.116 353.719 290.725 350.813C290.725 350.813 290.082 347.265 291.368 343.044C292.653 338.823 282.861 347.418 282.861 347.418C282.983 347.479 282.983 347.907 282.922 348.489C282.922 348.519 282.922 348.55 282.922 348.611C282.861 349.039 282.8 349.529 282.647 350.048C282.616 350.11 282.616 350.171 282.586 350.232C282.249 351.67 282.157 351.027 282.157 352.251Z"
     fill="#EEA886"
     id="path178" />
  <path
     d="M282.647 350.049C287.359 350.66 289.96 345.583 290.021 345.43C286.778 350.14 282.922 348.611 282.922 348.611C282.861 349.039 282.8 349.559 282.647 350.049Z"
     fill="#A77860"
     id="path180" />
  <path
     d="M291.949 342.126C291.918 342.126 291.918 342.126 291.949 342.126C291.245 343.625 290.388 345.063 289.44 346.286C286.166 350.477 278.546 350.599 278.424 339.068C278.393 336.896 278.669 335.122 279.128 333.684C280.688 328.576 284.36 327.72 284.36 327.72C287.084 327.567 291.827 328.24 293.387 331.758C294.489 334.266 293.663 338.395 291.949 342.126Z"
     fill="#EEA987"
     id="path182" />
  <path
     d="M291.949 342.126C291.918 342.126 291.918 342.126 291.949 342.126C291.949 342.126 291.551 342.249 290.144 339.404C289.868 338.823 289.654 339.251 289.532 338.976L287.298 338.089C287.298 338.089 289.409 335.061 286.502 334.021C283.534 332.981 279.097 333.654 279.097 333.654C276.802 323.56 284.85 327.139 284.85 327.139C287.696 327.689 291.796 328.209 293.387 331.757C294.489 334.265 293.662 338.395 291.949 342.126Z"
     fill="#665249"
     id="path184" />
  <path
     d="M289.042 337.233C289.195 336.468 290.725 335.795 291.368 337.447C292.01 339.098 289.838 340.872 289.287 340.505C288.736 340.138 288.767 338.517 289.042 337.233Z"
     fill="#EEA987"
     id="path186" />
  <g
     id="g1207"
     transform="translate(129.97581,43.325271)">
    <path
       d="m 11.493772,67.276857 c -0.138112,0 -0.230187,0.114829 -0.230187,0.229658 v 0.550863 c 0,0.137583 0.115093,0.229394 0.230187,0.229394 0.138086,0 0.230161,-0.11483 0.230161,-0.229394 v -0.550863 c 0,-0.137848 -0.115094,-0.229658 -0.230161,-0.229658 z"
       fill="#2b5d8f"
       id="path200"
       style="stroke-width:0.264583"
       clip-path="url(#clipPath1048)"
       transform="matrix(3.7795276,0,0,3.7795276,-124.99341,-188.70792)" />
    <path
       d="m 10.849274,66.725994 h -0.552398 c -0.138112,0 -0.230187,0.11483 -0.230187,0.229659 0,0.137583 0.115094,0.229394 0.230187,0.229394 h 0.552398 c 0.138112,0 0.230187,-0.114565 0.230187,-0.229394 0.02302,-0.137848 -0.09207,-0.229659 -0.230187,-0.229659 z"
       fill="#2b5d8f"
       id="path202"
       style="stroke-width:0.264583"
       clip-path="url(#clipPath1042)"
       transform="matrix(3.7795276,0,0,3.7795276,-124.99341,-188.70792)" />
    <path
       d="m 11.493772,65.578497 c -0.138112,0 -0.230187,0.114829 -0.230187,0.229658 v 0.550862 c 0,0.137584 0.115093,0.229394 0.230187,0.229394 0.138086,0 0.230161,-0.114829 0.230161,-0.229394 v -0.550862 c 0,-0.137848 -0.115094,-0.229658 -0.230161,-0.229658 z"
       fill="#2b5d8f"
       id="path204"
       style="stroke-width:0.264583"
       clip-path="url(#clipPath1036)"
       transform="matrix(3.7795276,0,0,3.7795276,-124.99341,-188.70792)" />
    <path
       d="m 12.667622,66.680222 h -0.552397 c -0.138112,0 -0.230187,0.114829 -0.230187,0.229393 0,0.137848 0.115094,0.229659 0.230187,0.229659 h 0.552397 c 0.138113,0 0.230188,-0.11483 0.230188,-0.229659 0,-0.114564 -0.09207,-0.229393 -0.230188,-0.229393 z"
       fill="#2b5d8f"
       id="path206"
       style="stroke-width:0.264583"
       clip-path="url(#clipPath1030)"
       transform="matrix(3.7795276,0,0,3.7795276,-124.99341,-188.70792)" />
  </g>
  <path
     d="m 8.7861612,22.225857 c 0,0 0.1841394,1.331145 -1.3580083,1.308205 0,0 1.3349922,0.02294 1.3119761,1.262301 0,0 0.1150858,-0.986896 1.335,-1.193456 0,-0.02294 -1.03578,0.20656 -1.2889678,-1.37705 z"
     fill="#2b5d8f"
     id="path208"
     style="stroke-width:0.264583"
     clip-path="url(#clipPath1024)"
     transform="matrix(3.7795276,0,0,3.7795276,203.04566,12.953498)" />
  <g
     id="g1414"
     transform="matrix(1,0,0,-1,-121.31076,440.47359)">
    <path
       d="m 112.71634,37.862123 h 5.47794 c 0.13811,0 0.23018,-0.11475 0.23018,-0.229526 0,-0.137689 -0.11509,-0.2295 -0.23018,-0.2295 h -5.47794 c -0.13811,0 -0.23018,0.11475 -0.23018,0.2295 -0.023,0.137715 0.0921,0.229526 0.23018,0.229526 z"
       fill="#2b5d8f"
       id="path194"
       style="stroke-width:0.264583"
       clip-path="url(#clipPath1066)"
       transform="matrix(3.7795276,0,0,3.7795276,27.010548,42.898802)" />
    <path
       d="m 119.92068,37.862123 h 1.05886 c 0.13812,0 0.23019,-0.11475 0.23019,-0.229526 0,-0.137689 -0.11509,-0.2295 -0.23019,-0.2295 h -1.05886 c -0.13811,0 -0.23019,0.11475 -0.23019,0.2295 0,0.137715 0.1151,0.229526 0.23019,0.229526 z"
       fill="#2b5d8f"
       id="path196"
       style="stroke-width:0.264583"
       clip-path="url(#clipPath1060)"
       transform="matrix(3.7795276,0,0,3.7795276,27.010548,42.898802)" />
    <path
       d="m 115.27116,35.957202 c 0,-0.137715 0.11509,-0.229526 0.23019,-0.229526 h 0.69056 c 0.13811,0 0.23019,0.11475 0.23019,0.229526 0,0.137689 -0.1151,0.2295 -0.23019,0.2295 h -0.69056 c -0.1151,0.02294 -0.23019,-0.09181 -0.23019,-0.2295 z m 1.88754,0 c 0,-0.137715 0.11509,-0.229526 0.23018,-0.229526 h 1.19671 c 0.13812,0 0.23019,0.11475 0.23019,0.229526 0,0.137689 -0.11509,0.2295 -0.23019,0.2295 h -1.19671 c -0.11509,0.02294 -0.23018,-0.09181 -0.23018,-0.2295 z m 2.39368,0 c 0,-0.137715 0.1151,-0.229526 0.23019,-0.229526 h 1.19697 c 0.13812,0 0.23019,0.11475 0.23019,0.229526 0,0.137689 -0.11509,0.2295 -0.23019,0.2295 h -1.19697 c -0.11509,0.02294 -0.23019,-0.09181 -0.23019,-0.2295 z"
       fill="#2b5d8f"
       id="path198"
       style="stroke-width:0.264583"
       clip-path="url(#clipPath1054)"
       transform="matrix(3.7795276,0,0,3.7795276,27.010548,42.898802)" />
  </g>
</svg>
